<svg width="50" height="50" viewBox="0 0 50 50" fill="none" xmlns="http://www.w3.org/2000/svg">
<circle cx="25" cy="25" r="25" fill="#1F3F7A"/>
<g clip-path="url(#clip0_161_56)">
<path d="M17.2392 13.0857C17.1338 12.9501 17.0007 12.8385 16.8489 12.7582C16.697 12.678 16.5298 12.631 16.3584 12.6204C16.1869 12.6097 16.0152 12.6357 15.8546 12.6965C15.6939 12.7574 15.5481 12.8517 15.4267 12.9732L13.5803 14.8214C12.7178 15.6857 12.3999 16.9089 12.7767 17.9821C14.3423 22.4234 16.8859 26.4561 20.2196 29.7821C23.5456 33.1158 27.5783 35.6594 32.0196 37.225C33.0928 37.6018 34.316 37.2839 35.1803 36.4214L37.0267 34.575C37.1482 34.4536 37.2426 34.3078 37.3034 34.1471C37.3642 33.9865 37.3902 33.8148 37.3795 33.6433C37.3689 33.4719 37.3219 33.3047 37.2417 33.1528C37.1614 33.001 37.0498 32.8679 36.9142 32.7625L32.7946 29.5589C32.6496 29.4468 32.4811 29.3689 32.3017 29.3312C32.1223 29.2935 31.9367 29.2968 31.7589 29.3411L27.8481 30.3178C27.3261 30.4474 26.7794 30.4401 26.2611 30.2965C25.7427 30.1529 25.2702 29.8779 24.8892 29.4982L20.5035 25.1107C20.1235 24.7299 19.8482 24.2575 19.7043 23.7391C19.5604 23.2207 19.5527 22.674 19.6821 22.1518L20.6606 18.2411C20.7049 18.0632 20.7082 17.8776 20.6705 17.6982C20.6328 17.5188 20.5549 17.3503 20.4428 17.2053L17.2392 13.0857ZM14.0785 11.6268C14.391 11.3142 14.7664 11.0716 15.1798 10.9153C15.5932 10.7589 16.0352 10.6923 16.4763 10.7198C16.9175 10.7473 17.3477 10.8684 17.7385 11.0749C18.1292 11.2815 18.4716 11.5688 18.7428 11.9178L21.9464 16.0357C22.5339 16.7911 22.741 17.775 22.5089 18.7036L21.5321 22.6143C21.4819 22.8168 21.4848 23.0289 21.5405 23.23C21.5962 23.4312 21.7028 23.6145 21.8499 23.7625L26.2374 28.15C26.3856 28.2975 26.5692 28.4042 26.7707 28.4599C26.9722 28.5156 27.1846 28.5183 27.3874 28.4678L31.2964 27.4911C31.7547 27.3771 32.2328 27.3686 32.6949 27.466C33.1569 27.5634 33.5909 27.7643 33.9642 28.0536L38.0821 31.2571C39.5624 32.4089 39.6981 34.5964 38.3731 35.9196L36.5267 37.7661C35.2053 39.0875 33.2303 39.6678 31.3892 39.0196C26.6761 37.3635 22.3973 34.6656 18.8714 31.1268C15.3327 27.6013 12.6348 23.3231 10.9785 18.6107C10.3321 16.7714 10.9124 14.7946 12.2339 13.4732L14.0785 11.6268Z" fill="white"/>
</g>
<defs>
<clipPath id="clip0_161_56">
<rect x="10.7144" y="10.7143" width="28.5714" height="28.5714" rx="8" fill="white"/>
</clipPath>
</defs>
</svg>
