<svg width="50" height="50" viewBox="0 0 50 50" fill="none" xmlns="http://www.w3.org/2000/svg">
<circle cx="25" cy="25" r="25" fill="#1F3F7A"/>
<g clip-path="url(#clip0_161_65)">
<path d="M11 18.1425C11 17.1953 11.3763 16.287 12.046 15.6172C12.7157 14.9475 13.6241 14.5712 14.5712 14.5712H35.9987C36.9459 14.5712 37.8543 14.9475 38.524 15.6172C39.1937 16.287 39.57 17.1953 39.57 18.1425V32.4275C39.57 33.3746 39.1937 34.283 38.524 34.9527C37.8543 35.6225 36.9459 35.9987 35.9987 35.9987H14.5712C13.6241 35.9987 12.7157 35.6225 12.046 34.9527C11.3763 34.283 11 33.3746 11 32.4275V18.1425ZM14.5712 16.3569C14.0977 16.3569 13.6435 16.545 13.3086 16.8799C12.9738 17.2147 12.7856 17.6689 12.7856 18.1425V18.53L25.285 26.0296L37.7844 18.53V18.1425C37.7844 17.6689 37.5962 17.2147 37.2614 16.8799C36.9265 16.545 36.4723 16.3569 35.9987 16.3569H14.5712ZM37.7844 20.612L29.3777 25.6564L37.7844 30.8293V20.612ZM37.7237 32.89L27.6527 26.6921L25.285 28.1116L22.9173 26.6921L12.8463 32.8882C12.9478 33.2681 13.1719 33.604 13.4838 33.8436C13.7957 34.0831 14.178 34.213 14.5712 34.2131H35.9987C36.3918 34.2132 36.7739 34.0835 37.0858 33.8443C37.3976 33.605 37.6219 33.2696 37.7237 32.89ZM12.7856 30.8293L21.1923 25.6564L12.7856 20.612V30.8293Z" fill="white"/>
</g>
<defs>
<clipPath id="clip0_161_65">
<rect width="28.57" height="28.57" fill="white" transform="translate(11 11)"/>
</clipPath>
</defs>
</svg>
